PathFileType	4	(X/Y/Z)	C:/Users/opensim2020/Desktop/walking_exp_matlab/subject03_walking07_straight_01.trc																																																																																																																																								
DataRate	CameraRate	NumFrames	NumMarkers	Units	OrigDataRate	OrigDataStartFrame	OrigNumFrames																																																																																																																																				
100	100	4	46	mm	100	742	310																																																																																																																																				
Frame#	Time	LFHD			RFHD			LBHD			RBHD			C7			T10			CLAV			STRN			RBAK			LSHO			LUPA			LELB			LFRM			LWRA			LWRB			LFIN			RSHO			RUPA			RELB			RFRM			RWRA			RWRB			RFIN			LASI			RASI			LPSI			RPSI			LTHI			LKNE			LTIB			LANK			LHEE			LTOE			RTHI			RKNE			RTIB			RANK			RHEE			RTOE			*39			*40			*41			*42			*43			*44			*45		
		X1	Y1	Z1	X2	Y2	Z2	X3	Y3	Z3	X4	Y4	Z4	X5	Y5	Z5	X6	Y6	Z6	X7	Y7	Z7	X8	Y8	Z8	X9	Y9	Z9	X10	Y10	Z10	X11	Y11	Z11	X12	Y12	Z12	X13	Y13	Z13	X14	Y14	Z14	X15	Y15	Z15	X16	Y16	Z16	X17	Y17	Z17	X18	Y18	Z18	X19	Y19	Z19	X20	Y20	Z20	X21	Y21	Z21	X22	Y22	Z22	X23	Y23	Z23	X24	Y24	Z24	X25	Y25	Z25	X26	Y26	Z26	X27	Y27	Z27	X28	Y28	Z28	X29	Y29	Z29	X30	Y30	Z30	X31	Y31	Z31	X32	Y32	Z32	X33	Y33	Z33	X34	Y34	Z34	X35	Y35	Z35	X36	Y36	Z36	X37	Y37	Z37	X38	Y38	Z38	X39	Y39	Z39	X40	Y40	Z40	X41	Y41	Z41	X42	Y42	Z42	X43	Y43	Z43	X44	Y44	Z44	X45	Y45	Z45	X46	Y46	Z46
																																																																																																																																											
78	0.77	-784.73682	1628.98804	1381.90869	-794.01776	1624.33191	1515.0614	-906.01398	1566.39392	1375.20239	-909.48309	1562.59961	1505.99414	-925.2345	1414.94397	1423.3407	-971.83893	1106.68372	1415.48633	-804.78119	1335.74939	1429.63733	-766.44507	1168.88257	1419.13477	-987.54669	1238.87451	1508.1377	-837.62616	1378.61975	1273.16101	-824.51672	1187.81543	1195.43311	-794.00574	1069.38892	1180.43457	-724.57782	960.64996	1189.23059	-663.96985	862.97192	1228.96704	-683.26746	854.79675	1177.7439	-631.55542	790.97809	1192.79956	-862.1969	1355.60999	1587.18958	-889.24786	1133.06543	1651.42017	-887.37103	1019.41467	1662.33508	-884.56244	882.0141	1660.71033	-859.68317	785.31427	1625.00513	-896.48633	781.89197	1665.5293	-881.03119	708.66461	1652.70337	-818.62811	929.33936	1299.10657	-811.97388	938.28156	1537.09314	-978.05438	959.01654	1354.03564	-973.77692	971.80627	1502.3075	-914.32104	634.23907	1260.82751	-949.25562	459.22055	1291.18713	-1072.69885	299.86508	1279.8927	-1185.87646	122.1526	1310.70374	-1239.29724	105.26863	1342.95105	-1063.56506	34.9099	1335.65967	-830.08862	650.48029	1588.20276	-771.94629	477.85043	1556.06555	-771.87164	290.95621	1569.16125	-740.63586	74.52907	1534.17297	-781.8407	39.45264	1484.3136	-597.67651	41.87687	1511.15393	-878.98975	1674.32556	1431.68665	NaN	NaN	NaN	NaN	NaN	NaN	NaN	NaN	NaN	NaN	NaN	NaN	NaN	NaN	NaN	NaN	NaN	NaN
79	0.78	-776.18243	1630.49121	1383.08557	-785.04468	1626.08057	1516.43335	-896.88214	1567.9873	1376.60205	-900.64777	1564.37878	1507.54236	-916.12195	1416.35156	1425.18237	-962.27832	1107.97424	1417.00549	-795.64832	1337.55933	1431.30579	-756.82159	1170.81628	1420.8385	-978.13599	1240.35425	1510.16406	-828.98035	1380.4873	1274.80652	-817.07751	1189.31042	1197.45215	-787.27643	1070.42163	1182.99927	-719.98322	960.46796	1190.76489	-660.87573	861.58142	1229.83118	-680.80371	853.84863	1178.65906	-630.18915	788.98218	1193.27576	-852.80927	1357.46765	1588.77271	-879.06598	1134.76038	1653.00635	-876.44293	1021.12	1663.93872	-873.97314	883.79663	1662.4386	-849.42151	786.9458	1626.7561	-885.98187	783.6637	1667.50073	-870.63477	710.46033	1654.7627	-808.20978	930.77136	1300.94177	-802.07312	940.41925	1538.79199	-967.56573	960.29016	1355.04602	-963.85065	973.87946	1503.27283	-902.50238	634.88446	1261.90601	-935.95569	459.57098	1291.18457	-1063.42603	302.73938	1279.93945	-1180.12195	127.85796	1311.14111	-1234.18201	113.20358	1343.82507	-1062.68042	35.11673	1336.32507	-822.38361	651.91577	1590.06091	-766.14624	478.70932	1557.37158	-768.67877	291.42993	1570.10254	-740.3031	74.58797	1534.43042	-781.82013	39.57315	1484.67432	-597.31213	41.33027	1511.12024	-870.06171	1675.83899	1432.88611	NaN	NaN	NaN	NaN	NaN	NaN	NaN	NaN	NaN	NaN	NaN	NaN	NaN	NaN	NaN	NaN	NaN	NaN
80	0.79	-767.42877	1631.82202	1384.79993	-776.28082	1627.75769	1517.56995	-888.29248	1569.63037	1378.0509	-891.88397	1566.21716	1508.97717	-907.93707	1417.94373	1426.97986	-952.7652	1109.26062	1418.60693	-786.63464	1339.34216	1432.86633	-747.26794	1172.70959	1422.43457	-968.71521	1241.83191	1512.17249	-820.39032	1382.38843	1276.48657	-809.50275	1190.81958	1199.46387	-781.36597	1071.5791	1184.99487	-715.54956	960.35382	1192.30627	-657.43768	860.40637	1230.51978	-678.55231	852.93408	1179.48083	-629.23907	786.89893	1193.64429	-843.46527	1359.36926	1590.38721	-868.68896	1136.4917	1654.72559	-865.58588	1022.94867	1665.53442	-863.08405	885.65417	1664.28723	-838.85663	788.71533	1628.60571	-875.09607	785.49512	1669.62939	-860.38239	712.00537	1656.61926	-797.35846	932.2641	1303.38965	-792.18958	942.50696	1540.62891	-957.07196	961.73444	1356.12061	-953.97675	975.87097	1504.30273	-890.12103	635.47937	1262.87476	-921.82202	459.38074	1290.92517	-1052.97461	305.54782	1280.54089	-1173.86816	134.00746	1311.95532	-1228.01685	121.68699	1345.09375	-1062.05872	35.17601	1337.01514	-814.7193	653.22852	1591.98779	-761.04968	479.44193	1558.63416	-765.60828	291.75449	1571.22168	-740.14087	74.58784	1534.69055	-781.83936	39.66849	1485.01868	-597.09247	40.87127	1511.56873	-861.18091	1677.599	1434.15088	NaN	NaN	NaN	NaN	NaN	NaN	NaN	NaN	NaN	NaN	NaN	NaN	NaN	NaN	NaN	NaN	NaN	NaN
81	0.8	-758.79834	1633.28223	1385.46436	-767.37689	1629.24805	1518.73413	-879.86322	1571.23633	1379.47327	-882.86047	1567.8761	1510.31445	-899.034	1418.9458	1428.59558	-943.15985	1110.43762	1420.19629	-777.70416	1340.91992	1434.2804	-737.87335	1174.47864	1423.97363	-959.21967	1243.28088	1514.15002	-811.7832	1384.18396	1278.1084	-802.1731	1192.25854	1201.45154	-775.50391	1072.62537	1187.12341	-711.44781	960.11871	1193.67786	-655.61823	858.55054	1231.10852	-676.52838	852.08881	1180.13049	-628.60767	784.71741	1193.94287	-834.09717	1361.23096	1591.8999	-858.09991	1138.28076	1656.58411	-854.54089	1024.78027	1667.22644	-851.93091	887.50488	1666.24377	-827.91266	790.43854	1630.60242	-863.86847	787.34637	1671.89746	-849.53607	713.71271	1658.69324	-787.08899	933.64227	1305.37061	-782.51581	944.38733	1542.44849	-946.65051	963.26202	1357.32251	-943.92694	977.6485	1505.4856	-877.565	635.84821	1263.75598	-906.57117	459.04535	1290.36414	-1041.5199	308.23743	1280.87366	-1166.75464	140.36446	1313.12561	-1220.61743	130.54189	1346.94971	-1060.76782	35.32185	1337.69678	-806.93762	654.38043	1593.97986	-755.84967	479.92252	1560.21716	-762.74493	291.98575	1572.453	-739.84497	74.57822	1534.99707	-781.82227	39.72345	1485.33105	-596.86462	40.41697	1511.79004	-852.32855	1679.08215	1435.18115	NaN	NaN	NaN	NaN	NaN	NaN	NaN	NaN	NaN	NaN	NaN	NaN	NaN	NaN	NaN	NaN	NaN	NaN
